<svg viewBox="0 0 44 44" xmlns="http://www.w3.org/2000/svg">
  <ellipse cx="22" cy="14" rx="5" ry="13" fill="#C2477A" fill-opacity="0.85"/>
  <ellipse cx="22" cy="14" rx="5" ry="13" fill="#ED93B1" fill-opacity="0.85" transform="rotate(22.5 22 22)"/>
  <ellipse cx="22" cy="14" rx="5" ry="13" fill="#C2477A" fill-opacity="0.85" transform="rotate(45 22 22)"/>
  <ellipse cx="22" cy="14" rx="5" ry="13" fill="#ED93B1" fill-opacity="0.85" transform="rotate(67.5 22 22)"/>
  <ellipse cx="22" cy="14" rx="5" ry="13" fill="#C2477A" fill-opacity="0.85" transform="rotate(90 22 22)"/>
  <ellipse cx="22" cy="14" rx="5" ry="13" fill="#ED93B1" fill-opacity="0.85" transform="rotate(112.5 22 22)"/>
  <ellipse cx="22" cy="14" rx="5" ry="13" fill="#C2477A" fill-opacity="0.85" transform="rotate(135 22 22)"/>
  <ellipse cx="22" cy="14" rx="5" ry="13" fill="#ED93B1" fill-opacity="0.85" transform="rotate(157.5 22 22)"/>
  <circle cx="22" cy="1.5" r="1.5" fill="#C2477A"/>
  <circle cx="42.5" cy="22" r="1.5" fill="#C2477A"/>
  <circle cx="22" cy="42.5" r="1.5" fill="#C2477A"/>
  <circle cx="1.5" cy="22" r="1.5" fill="#C2477A"/>
  <circle cx="22" cy="22" r="4.5" fill="#ffffff"/>
</svg>
